<mxfile host="65bd71144e">
    <diagram name="Page-1" id="aSOdbRMpBCBLWnjGmdwC">
        <mxGraphModel dx="2387" dy="2569" grid="1" gridSize="10" guides="1" tooltips="1" connect="1" arrows="1" fold="1" page="1" pageScale="1" pageWidth="850" pageHeight="1100" math="0" shadow="0">
            <root>
                <mxCell id="0"/>
                <mxCell id="1" parent="0"/>
                <mxCell id="16" value="" style="html=1;whiteSpace=wrap;fontSize=16;" parent="1" vertex="1">
                    <mxGeometry x="1120" y="-50" width="1050" height="1950" as="geometry"/>
                </mxCell>
                <mxCell id="17" value="Client" style="text;html=1;strokeColor=none;fillColor=none;align=center;verticalAlign=middle;whiteSpace=wrap;rounded=0;fontSize=16;" parent="1" vertex="1">
                    <mxGeometry x="1130" y="80" width="60" height="30" as="geometry"/>
                </mxCell>
                <mxCell id="18" style="edgeStyle=none;curved=1;rounded=0;orthogonalLoop=1;jettySize=auto;html=1;entryX=0;entryY=0.5;entryDx=0;entryDy=0;fontSize=12;startSize=8;endSize=8;endArrow=none;endFill=0;" parent="1" source="23" target="57" edge="1">
                    <mxGeometry relative="1" as="geometry"/>
                </mxCell>
                <mxCell id="20" style="edgeStyle=none;curved=1;rounded=0;orthogonalLoop=1;jettySize=auto;html=1;entryX=0;entryY=0.5;entryDx=0;entryDy=0;fontSize=12;startSize=8;endSize=8;endArrow=none;endFill=0;" parent="1" source="23" target="46" edge="1">
                    <mxGeometry relative="1" as="geometry"/>
                </mxCell>
                <mxCell id="22" style="edgeStyle=none;curved=1;rounded=0;orthogonalLoop=1;jettySize=auto;html=1;entryX=0;entryY=0.5;entryDx=0;entryDy=0;fontSize=12;startSize=8;endSize=8;endArrow=none;endFill=0;" parent="1" source="23" target="30" edge="1">
                    <mxGeometry relative="1" as="geometry"/>
                </mxCell>
                <mxCell id="201" style="edgeStyle=none;html=1;exitX=0.5;exitY=0;exitDx=0;exitDy=0;exitPerimeter=0;endArrow=block;endFill=0;endSize=13;" parent="1" source="23" target="88" edge="1">
                    <mxGeometry relative="1" as="geometry">
                        <Array as="points">
                            <mxPoint x="950" y="290"/>
                        </Array>
                    </mxGeometry>
                </mxCell>
                <mxCell id="23" value="Player" style="shape=umlActor;verticalLabelPosition=bottom;verticalAlign=top;html=1;fontSize=16;" parent="1" vertex="1">
                    <mxGeometry x="980" y="840" width="30" height="60" as="geometry"/>
                </mxCell>
                <mxCell id="48" value="" style="group" parent="1" vertex="1" connectable="0">
                    <mxGeometry x="1170" y="365" width="680" height="1215" as="geometry"/>
                </mxCell>
                <mxCell id="49" value="Voir la liste des parties" style="ellipse;whiteSpace=wrap;html=1;fontSize=16;" parent="48" vertex="1">
                    <mxGeometry x="270" width="140" height="70" as="geometry"/>
                </mxCell>
                <mxCell id="50" value="Voir le détail &lt;br&gt;d'une partie" style="ellipse;whiteSpace=wrap;html=1;fontSize=16;" parent="48" vertex="1">
                    <mxGeometry x="270" y="103" width="140" height="70" as="geometry"/>
                </mxCell>
                <mxCell id="51" value="S'inscrire à une partie" style="ellipse;whiteSpace=wrap;html=1;fontSize=16;" parent="48" vertex="1">
                    <mxGeometry x="270" y="206" width="140" height="70" as="geometry"/>
                </mxCell>
                <mxCell id="52" value="Se désinscrire &lt;br&gt;d'une partie" style="ellipse;whiteSpace=wrap;html=1;fontSize=16;" parent="48" vertex="1">
                    <mxGeometry x="270" y="309" width="140" height="70" as="geometry"/>
                </mxCell>
                <mxCell id="53" value="Créer une partie" style="ellipse;whiteSpace=wrap;html=1;fontSize=16;" parent="48" vertex="1">
                    <mxGeometry x="270" y="412" width="140" height="70" as="geometry"/>
                </mxCell>
                <mxCell id="54" value="Changer les paramètres" style="ellipse;whiteSpace=wrap;html=1;fontSize=16;" parent="48" vertex="1">
                    <mxGeometry x="490" y="412" width="140" height="70" as="geometry"/>
                </mxCell>
                <mxCell id="57" value="Page des parties" style="ellipse;whiteSpace=wrap;html=1;fontSize=16;" parent="48" vertex="1">
                    <mxGeometry y="195" width="140" height="70" as="geometry"/>
                </mxCell>
                <mxCell id="59" style="edgeStyle=none;curved=1;rounded=0;orthogonalLoop=1;jettySize=auto;html=1;fontSize=12;startSize=8;endSize=8;" parent="48" source="53" target="54" edge="1">
                    <mxGeometry relative="1" as="geometry"/>
                </mxCell>
                <mxCell id="60" style="edgeStyle=none;curved=1;rounded=0;orthogonalLoop=1;jettySize=auto;html=1;entryX=0;entryY=0.5;entryDx=0;entryDy=0;fontSize=12;startSize=8;endSize=8;" parent="48" source="57" target="49" edge="1">
                    <mxGeometry relative="1" as="geometry"/>
                </mxCell>
                <mxCell id="61" style="edgeStyle=none;curved=1;rounded=0;orthogonalLoop=1;jettySize=auto;html=1;entryX=0;entryY=0.5;entryDx=0;entryDy=0;fontSize=12;startSize=8;endSize=8;" parent="48" source="57" target="50" edge="1">
                    <mxGeometry relative="1" as="geometry"/>
                </mxCell>
                <mxCell id="62" style="edgeStyle=none;curved=1;rounded=0;orthogonalLoop=1;jettySize=auto;html=1;entryX=0;entryY=0.5;entryDx=0;entryDy=0;fontSize=12;startSize=8;endSize=8;" parent="48" source="57" target="51" edge="1">
                    <mxGeometry relative="1" as="geometry"/>
                </mxCell>
                <mxCell id="63" style="edgeStyle=none;curved=1;rounded=0;orthogonalLoop=1;jettySize=auto;html=1;entryX=0;entryY=0.5;entryDx=0;entryDy=0;fontSize=12;startSize=8;endSize=8;" parent="48" source="57" target="52" edge="1">
                    <mxGeometry relative="1" as="geometry"/>
                </mxCell>
                <mxCell id="64" style="edgeStyle=none;curved=1;rounded=0;orthogonalLoop=1;jettySize=auto;html=1;entryX=0;entryY=0.5;entryDx=0;entryDy=0;fontSize=12;startSize=8;endSize=8;" parent="48" source="57" target="53" edge="1">
                    <mxGeometry relative="1" as="geometry"/>
                </mxCell>
                <mxCell id="183" value="Comptabilizer les votes" style="ellipse;whiteSpace=wrap;html=1;fontSize=16;" parent="48" vertex="1">
                    <mxGeometry x="490" y="103" width="140" height="70" as="geometry"/>
                </mxCell>
                <mxCell id="44" value="" style="group" parent="48" vertex="1" connectable="0">
                    <mxGeometry x="10" y="505" width="410" height="70" as="geometry"/>
                </mxCell>
                <mxCell id="45" value="Se déconnecter" style="ellipse;whiteSpace=wrap;html=1;fontSize=16;" parent="44" vertex="1">
                    <mxGeometry x="270" width="140" height="70" as="geometry"/>
                </mxCell>
                <mxCell id="46" value="Page des paramètres" style="ellipse;whiteSpace=wrap;html=1;fontSize=16;" parent="44" vertex="1">
                    <mxGeometry width="140" height="70" as="geometry"/>
                </mxCell>
                <mxCell id="47" style="edgeStyle=none;curved=1;rounded=0;orthogonalLoop=1;jettySize=auto;html=1;fontSize=12;startSize=8;endSize=8;" parent="44" source="46" target="45" edge="1">
                    <mxGeometry relative="1" as="geometry"/>
                </mxCell>
                <mxCell id="24" value="" style="group" parent="48" vertex="1" connectable="0">
                    <mxGeometry y="715" width="630" height="500" as="geometry"/>
                </mxCell>
                <mxCell id="25" value="Discuter avec un mort" style="ellipse;whiteSpace=wrap;html=1;fontSize=16;" parent="24" vertex="1">
                    <mxGeometry x="640" y="-20" width="140" height="70" as="geometry"/>
                </mxCell>
                <mxCell id="26" value="Faire l'action de son pouvoir" style="ellipse;whiteSpace=wrap;html=1;fontSize=16;" parent="24" vertex="1">
                    <mxGeometry x="420" y="140" width="140" height="70" as="geometry"/>
                </mxCell>
                <mxCell id="27" value="Voir le rôle d'un joueur" style="ellipse;whiteSpace=wrap;html=1;fontSize=16;" parent="24" vertex="1">
                    <mxGeometry x="640" y="83" width="140" height="70" as="geometry"/>
                </mxCell>
                <mxCell id="28" value="Contaminer un villageois" style="ellipse;whiteSpace=wrap;html=1;fontSize=16;" parent="24" vertex="1">
                    <mxGeometry x="640" y="187" width="140" height="70" as="geometry"/>
                </mxCell>
                <mxCell id="29" value="Voir la discussion des loups" style="ellipse;whiteSpace=wrap;html=1;fontSize=16;" parent="24" vertex="1">
                    <mxGeometry x="640" y="290" width="140" height="70" as="geometry"/>
                </mxCell>
                <mxCell id="30" value="Page du jeux" style="ellipse;whiteSpace=wrap;html=1;fontSize=16;" parent="24" vertex="1">
                    <mxGeometry y="140" width="140" height="70" as="geometry"/>
                </mxCell>
                <mxCell id="31" style="edgeStyle=none;curved=1;rounded=0;orthogonalLoop=1;jettySize=auto;html=1;entryX=0;entryY=0.5;entryDx=0;entryDy=0;fontSize=12;startSize=8;endSize=8;" parent="24" source="26" target="25" edge="1">
                    <mxGeometry relative="1" as="geometry"/>
                </mxCell>
                <mxCell id="32" style="edgeStyle=none;curved=1;rounded=0;orthogonalLoop=1;jettySize=auto;html=1;entryX=0;entryY=0.5;entryDx=0;entryDy=0;fontSize=12;startSize=8;endSize=8;" parent="24" source="26" target="27" edge="1">
                    <mxGeometry relative="1" as="geometry"/>
                </mxCell>
                <mxCell id="33" style="edgeStyle=none;curved=1;rounded=0;orthogonalLoop=1;jettySize=auto;html=1;entryX=0;entryY=0.5;entryDx=0;entryDy=0;fontSize=12;startSize=8;endSize=8;" parent="24" source="26" target="28" edge="1">
                    <mxGeometry relative="1" as="geometry"/>
                </mxCell>
                <mxCell id="34" style="edgeStyle=none;curved=1;rounded=0;orthogonalLoop=1;jettySize=auto;html=1;entryX=0;entryY=0.5;entryDx=0;entryDy=0;fontSize=12;startSize=8;endSize=8;" parent="24" source="26" target="29" edge="1">
                    <mxGeometry relative="1" as="geometry"/>
                </mxCell>
                <mxCell id="35" style="edgeStyle=none;curved=1;rounded=0;orthogonalLoop=1;jettySize=auto;html=1;fontSize=12;startSize=8;endSize=8;" parent="24" source="30" target="26" edge="1">
                    <mxGeometry relative="1" as="geometry"/>
                </mxCell>
                <mxCell id="191" value="Propose voter" style="ellipse;whiteSpace=wrap;html=1;fontSize=16;" parent="24" vertex="1">
                    <mxGeometry x="270" y="220" width="140" height="70" as="geometry"/>
                </mxCell>
                <mxCell id="190" value="Ratifier le vote" style="ellipse;whiteSpace=wrap;html=1;fontSize=16;" parent="24" vertex="1">
                    <mxGeometry x="270" y="330" width="140" height="70" as="geometry"/>
                </mxCell>
                <mxCell id="68" value="" style="group" parent="1" vertex="1" connectable="0">
                    <mxGeometry x="1170" y="150" width="410" height="170" as="geometry"/>
                </mxCell>
                <mxCell id="69" value="Créer un compte&amp;nbsp;" style="ellipse;whiteSpace=wrap;html=1;fontSize=16;" parent="68" vertex="1">
                    <mxGeometry x="270" width="140" height="70" as="geometry"/>
                </mxCell>
                <mxCell id="70" value="Se connecter" style="ellipse;whiteSpace=wrap;html=1;fontSize=16;" parent="68" vertex="1">
                    <mxGeometry x="270" y="100" width="140" height="70" as="geometry"/>
                </mxCell>
                <mxCell id="71" value="Page de &lt;br&gt;connexion" style="ellipse;whiteSpace=wrap;html=1;fontSize=16;" parent="68" vertex="1">
                    <mxGeometry y="50" width="140" height="70" as="geometry"/>
                </mxCell>
                <mxCell id="72" style="edgeStyle=none;curved=1;rounded=0;orthogonalLoop=1;jettySize=auto;html=1;entryX=0;entryY=0.5;entryDx=0;entryDy=0;fontSize=12;startSize=8;endSize=8;" parent="68" source="71" target="69" edge="1">
                    <mxGeometry relative="1" as="geometry"/>
                </mxCell>
                <mxCell id="73" style="edgeStyle=none;curved=1;rounded=0;orthogonalLoop=1;jettySize=auto;html=1;entryX=0;entryY=0.5;entryDx=0;entryDy=0;fontSize=12;startSize=8;endSize=8;" parent="68" source="71" target="70" edge="1">
                    <mxGeometry relative="1" as="geometry"/>
                </mxCell>
                <mxCell id="74" style="edgeStyle=none;html=1;entryX=0;entryY=0.5;entryDx=0;entryDy=0;endArrow=none;endFill=0;" parent="1" source="75" target="80" edge="1">
                    <mxGeometry relative="1" as="geometry"/>
                </mxCell>
                <mxCell id="75" value="Server" style="shape=umlActor;verticalLabelPosition=bottom;verticalAlign=top;html=1;" parent="1" vertex="1">
                    <mxGeometry x="1010" y="1665" width="30" height="60" as="geometry"/>
                </mxCell>
                <mxCell id="76" style="edgeStyle=none;html=1;entryX=0;entryY=0.5;entryDx=0;entryDy=0;dashed=1;dashPattern=8 8;endArrow=none;endFill=0;startArrow=classic;startFill=1;" parent="1" source="80" target="83" edge="1">
                    <mxGeometry relative="1" as="geometry"/>
                </mxCell>
                <mxCell id="77" value="&amp;lt;&amp;lt; include &amp;gt;&amp;gt;" style="edgeLabel;html=1;align=center;verticalAlign=middle;resizable=0;points=[];" parent="76" vertex="1" connectable="0">
                    <mxGeometry x="-0.0051" y="-3" relative="1" as="geometry">
                        <mxPoint x="1" y="-18" as="offset"/>
                    </mxGeometry>
                </mxCell>
                <mxCell id="80" value="Attribuer un rôle&amp;nbsp;" style="ellipse;whiteSpace=wrap;html=1;fontSize=16;" parent="1" vertex="1">
                    <mxGeometry x="1170" y="1660" width="140" height="70" as="geometry"/>
                </mxCell>
                <mxCell id="81" style="edgeStyle=none;html=1;dashed=1;dashPattern=8 8;endArrow=none;endFill=0;startArrow=classic;startFill=1;" parent="1" source="83" target="26" edge="1">
                    <mxGeometry relative="1" as="geometry">
                        <mxPoint x="1660" y="1770" as="sourcePoint"/>
                    </mxGeometry>
                </mxCell>
                <mxCell id="82" value="&amp;lt;&amp;lt; include &amp;gt;&amp;gt;" style="edgeLabel;html=1;align=center;verticalAlign=middle;resizable=0;points=[];" parent="81" vertex="1" connectable="0">
                    <mxGeometry x="-0.3227" y="-1" relative="1" as="geometry">
                        <mxPoint x="39" y="-26" as="offset"/>
                    </mxGeometry>
                </mxCell>
                <mxCell id="83" value="Tirer au sort un pouvoir" style="ellipse;whiteSpace=wrap;html=1;fontSize=16;" parent="1" vertex="1">
                    <mxGeometry x="1580" y="1660" width="140" height="70" as="geometry"/>
                </mxCell>
                <mxCell id="192" style="edgeStyle=none;html=1;entryX=0;entryY=0.5;entryDx=0;entryDy=0;startArrow=block;startFill=0;endArrow=none;endFill=0;startSize=10;" parent="1" source="84" target="190" edge="1">
                    <mxGeometry relative="1" as="geometry"/>
                </mxCell>
                <mxCell id="193" style="edgeStyle=none;html=1;entryX=0;entryY=0.5;entryDx=0;entryDy=0;startArrow=block;startFill=0;endArrow=none;endFill=0;startSize=10;" parent="1" source="84" target="191" edge="1">
                    <mxGeometry relative="1" as="geometry"/>
                </mxCell>
                <mxCell id="84" value="Voter" style="ellipse;whiteSpace=wrap;html=1;fontSize=16;" parent="1" vertex="1">
                    <mxGeometry x="1170" y="1410" width="140" height="70" as="geometry"/>
                </mxCell>
                <mxCell id="85" style="edgeStyle=none;html=1;entryX=0.5;entryY=0;entryDx=0;entryDy=0;endArrow=classic;endFill=1;" parent="1" source="30" target="84" edge="1">
                    <mxGeometry relative="1" as="geometry"/>
                </mxCell>
                <mxCell id="89" style="edgeStyle=none;html=1;entryX=0;entryY=0.5;entryDx=0;entryDy=0;endArrow=none;endFill=0;" parent="1" source="88" target="71" edge="1">
                    <mxGeometry relative="1" as="geometry"/>
                </mxCell>
                <mxCell id="88" value="User" style="shape=umlActor;verticalLabelPosition=bottom;verticalAlign=top;html=1;fontSize=16;" parent="1" vertex="1">
                    <mxGeometry x="980" y="205" width="30" height="60" as="geometry"/>
                </mxCell>
                <mxCell id="186" style="edgeStyle=none;html=1;entryX=1;entryY=0.5;entryDx=0;entryDy=0;endArrow=none;endFill=0;" parent="1" source="180" target="182" edge="1">
                    <mxGeometry relative="1" as="geometry"/>
                </mxCell>
                <mxCell id="187" style="edgeStyle=none;html=1;entryX=1;entryY=0.5;entryDx=0;entryDy=0;endArrow=none;endFill=0;" parent="1" source="180" target="181" edge="1">
                    <mxGeometry relative="1" as="geometry"/>
                </mxCell>
                <mxCell id="180" value="Server" style="shape=umlActor;verticalLabelPosition=bottom;verticalAlign=top;html=1;" parent="1" vertex="1">
                    <mxGeometry x="2250" y="365" width="30" height="60" as="geometry"/>
                </mxCell>
                <mxCell id="181" value="Alterner nuit et jour" style="ellipse;whiteSpace=wrap;html=1;fontSize=16;" parent="1" vertex="1">
                    <mxGeometry x="1920" y="360" width="140" height="70" as="geometry"/>
                </mxCell>
                <mxCell id="185" style="edgeStyle=none;html=1;entryX=1;entryY=0.5;entryDx=0;entryDy=0;dashed=1;dashPattern=8 8;" parent="1" source="182" target="183" edge="1">
                    <mxGeometry relative="1" as="geometry"/>
                </mxCell>
                <mxCell id="188" value="&amp;lt;&amp;lt; include &amp;gt;&amp;gt;" style="edgeLabel;html=1;align=center;verticalAlign=middle;resizable=0;points=[];" parent="185" vertex="1" connectable="0">
                    <mxGeometry x="-0.5081" relative="1" as="geometry">
                        <mxPoint x="-30" y="-14" as="offset"/>
                    </mxGeometry>
                </mxCell>
                <mxCell id="182" value="Eliminer un villageoi" style="ellipse;whiteSpace=wrap;html=1;fontSize=16;" parent="1" vertex="1">
                    <mxGeometry x="1920" y="470" width="140" height="70" as="geometry"/>
                </mxCell>
                <mxCell id="200" style="edgeStyle=none;html=1;exitX=0;exitY=0;exitDx=0;exitDy=0;entryX=1;entryY=1;entryDx=0;entryDy=0;endArrow=block;endFill=0;startSize=6;endSize=10;" parent="1" source="198" target="84" edge="1">
                    <mxGeometry relative="1" as="geometry"/>
                </mxCell>
                <mxCell id="198" value="Voir le résultat du vote" style="ellipse;whiteSpace=wrap;html=1;fontSize=16;fillColor=default;" parent="1" vertex="1">
                    <mxGeometry x="1440" y="1500" width="140" height="70" as="geometry"/>
                </mxCell>
            </root>
        </mxGraphModel>
    </diagram>
</mxfile>